<svg width="116" height="125" viewBox="0 0 116 125" fill="none" xmlns="http://www.w3.org/2000/svg">
<circle cx="46.5005" cy="76" r="41.5" fill="#6508A0"/>
<g filter="url(#filter0_ii_2_210)">
<path d="M45.5155 92.3626C41.678 97.0516 32.638 101.337 29.6595 98.8994C26.681 96.4618 29.0942 86.7529 32.9317 82.0639C36.0719 78.227 38.8446 81.5994 41.8231 84.037C44.8015 86.4746 48.6556 88.5257 45.5155 92.3626Z" fill="url(#paint0_linear_2_210)"/>
</g>
<g filter="url(#filter1_ii_2_210)">
<path d="M29.6963 68.9961C30.1349 68.099 31.2955 67.8454 32.0683 68.4779L56.906 88.8053C57.6789 89.4378 57.6598 90.6256 56.8672 91.233L54.0258 93.4103C53.4554 93.8474 52.6592 93.8346 52.1031 93.3795L28.5343 74.0906C27.9782 73.6355 27.8082 72.8575 28.1239 72.2119L29.6963 68.9961Z" fill="url(#paint1_linear_2_210)"/>
</g>
<path d="M31.9457 68.6277L56.7834 88.9551C57.4597 89.5085 57.443 90.5479 56.7494 91.0794L53.9081 93.2566C53.409 93.6391 52.7123 93.6279 52.2257 93.2297L28.6569 73.9408C28.1703 73.5425 28.0216 72.8618 28.2978 72.2969L29.8702 69.0812C30.254 68.2962 31.2695 68.0743 31.9457 68.6277Z" stroke="url(#paint2_linear_2_210)" stroke-width="0.387162"/>
<g filter="url(#filter2_f_2_210)">
<path d="M30.7661 65.6906C31.1809 64.7562 32.3713 64.473 33.1624 65.1205L59.68 86.8227C60.4711 87.4701 60.4289 88.693 59.595 89.2844L57.1386 91.0263C56.5698 91.4296 55.8016 91.4031 55.262 90.9615L29.979 70.2697C29.4394 69.8281 29.2615 69.0803 29.5444 68.4429L30.7661 65.6906Z" fill="url(#paint3_linear_2_210)"/>
<path d="M30.7661 65.6906C31.1809 64.7562 32.3713 64.473 33.1624 65.1205L59.68 86.8227C60.4711 87.4701 60.4289 88.693 59.595 89.2844L57.1386 91.0263C56.5698 91.4296 55.8016 91.4031 55.262 90.9615L29.979 70.2697C29.4394 69.8281 29.2615 69.0803 29.5444 68.4429L30.7661 65.6906Z" fill="black" fill-opacity="0.2"/>
</g>
<g filter="url(#filter3_ii_2_210)">
<path fill-rule="evenodd" clip-rule="evenodd" d="M33.479 70.8835C35.8835 69.3762 38.3074 67.2424 40.4709 64.5987C46.565 57.1525 48.2858 48.4814 44.3145 45.2312C40.3432 41.981 32.1836 45.3826 26.0895 52.8289C24.2043 55.1324 22.7376 57.5531 21.7284 59.8944C21.4653 60.5048 21.6579 61.209 22.1724 61.6301L33.479 70.8835Z" fill="url(#paint4_linear_2_210)"/>
</g>
<g filter="url(#filter4_ii_2_210)">
<path fill-rule="evenodd" clip-rule="evenodd" d="M65.5762 97.1512C66.0906 97.5722 66.819 97.6218 67.3654 97.2432C69.4608 95.791 71.5437 93.8745 73.4289 91.571C79.523 84.1247 81.2438 75.4536 77.2725 72.2034C73.3012 68.9533 65.1416 72.3548 59.0475 79.8011C56.8839 82.4447 55.2716 85.2427 54.2695 87.8977L65.5762 97.1512Z" fill="url(#paint5_linear_2_210)"/>
</g>
<g filter="url(#filter5_ii_2_210)">
<path fill-rule="evenodd" clip-rule="evenodd" d="M53.6204 32.9601C53.4166 33.1087 53.4074 33.411 53.6026 33.5708L86.8654 60.7934C87.0607 60.9532 87.3552 60.8844 87.4606 60.6552C94.0742 46.2774 94.3245 32.8781 86.908 26.8084C79.4916 20.7387 66.4064 23.6338 53.6204 32.9601Z" fill="url(#paint6_linear_2_210)"/>
</g>
<g filter="url(#filter6_i_2_210)">
<path fill-rule="evenodd" clip-rule="evenodd" d="M86.817 62.0149C86.9727 61.6946 86.886 61.3099 86.6104 61.0843L53.3669 33.8776C53.0913 33.652 52.6971 33.6431 52.4139 33.8591C47.6394 37.499 42.9331 42.0279 38.6075 47.3132C33.6431 53.3792 29.7545 59.7397 27.0449 65.892C26.9057 66.208 26.9963 66.5773 27.2635 66.796L59.5041 93.182C59.7713 93.4007 60.1512 93.4165 60.4335 93.2175C65.9284 89.3448 71.3944 84.2752 76.3588 78.2092C80.6844 72.9239 84.1932 67.4149 86.817 62.0149Z" fill="url(#paint7_linear_2_210)"/>
</g>
<g filter="url(#filter7_f_2_210)">
<ellipse cx="71.864" cy="29.5888" rx="2.43628" ry="3.40147" transform="rotate(69.2972 71.864 29.5888)" fill="white" fill-opacity="0.1"/>
</g>
<defs>
<filter id="filter0_ii_2_210" x="28.3257" y="79.9406" width="18.3591" height="19.6651" filterUnits="userSpaceOnUse" color-interpolation-filters="sRGB">
<feFlood flood-opacity="0" result="BackgroundImageFix"/>
<feBlend mode="normal" in="SourceGraphic" in2="BackgroundImageFix" result="shape"/>
<feColorMatrix in="SourceAlpha" type="matrix" values="0 0 0 0 0 0 0 0 0 0 0 0 0 0 0 0 0 0 127 0" result="hardAlpha"/>
<feOffset/>
<feGaussianBlur stdDeviation="1.16149"/>
<feComposite in2="hardAlpha" operator="arithmetic" k2="-1" k3="1"/>
<feColorMatrix type="matrix" values="0 0 0 0 1 0 0 0 0 1 0 0 0 0 1 0 0 0 1 0"/>
<feBlend mode="normal" in2="shape" result="effect1_innerShadow_2_210"/>
<feColorMatrix in="SourceAlpha" type="matrix" values="0 0 0 0 0 0 0 0 0 0 0 0 0 0 0 0 0 0 127 0" result="hardAlpha"/>
<feOffset dy="-0.387162"/>
<feGaussianBlur stdDeviation="0.387162"/>
<feComposite in2="hardAlpha" operator="arithmetic" k2="-1" k3="1"/>
<feColorMatrix type="matrix" values="0 0 0 0 1 0 0 0 0 0.713521 0 0 0 0 0.140562 0 0 0 0.8 0"/>
<feBlend mode="normal" in2="effect1_innerShadow_2_210" result="effect2_innerShadow_2_210"/>
</filter>
<filter id="filter1_ii_2_210" x="27.9663" y="67.7402" width="29.5076" height="25.9895" filterUnits="userSpaceOnUse" color-interpolation-filters="sRGB">
<feFlood flood-opacity="0" result="BackgroundImageFix"/>
<feBlend mode="normal" in="SourceGraphic" in2="BackgroundImageFix" result="shape"/>
<feColorMatrix in="SourceAlpha" type="matrix" values="0 0 0 0 0 0 0 0 0 0 0 0 0 0 0 0 0 0 127 0" result="hardAlpha"/>
<feOffset/>
<feGaussianBlur stdDeviation="1.16149"/>
<feComposite in2="hardAlpha" operator="arithmetic" k2="-1" k3="1"/>
<feColorMatrix type="matrix" values="0 0 0 0 1 0 0 0 0 1 0 0 0 0 1 0 0 0 1 0"/>
<feBlend mode="normal" in2="shape" result="effect1_innerShadow_2_210"/>
<feColorMatrix in="SourceAlpha" type="matrix" values="0 0 0 0 0 0 0 0 0 0 0 0 0 0 0 0 0 0 127 0" result="hardAlpha"/>
<feOffset dy="-0.387162"/>
<feGaussianBlur stdDeviation="0.387162"/>
<feComposite in2="hardAlpha" operator="arithmetic" k2="-1" k3="1"/>
<feColorMatrix type="matrix" values="0 0 0 0 1 0 0 0 0 0.713521 0 0 0 0 0.140562 0 0 0 0.8 0"/>
<feBlend mode="normal" in2="effect1_innerShadow_2_210" result="effect2_innerShadow_2_210"/>
</filter>
<filter id="filter2_f_2_210" x="26.3138" y="61.6725" width="37.0313" height="32.7364" filterUnits="userSpaceOnUse" color-interpolation-filters="sRGB">
<feFlood flood-opacity="0" result="BackgroundImageFix"/>
<feBlend mode="normal" in="SourceGraphic" in2="BackgroundImageFix" result="shape"/>
<feGaussianBlur stdDeviation="1.54865" result="effect1_foregroundBlur_2_210"/>
</filter>
<filter id="filter3_ii_2_210" x="21.6111" y="43.6119" width="24.8411" height="27.2716" filterUnits="userSpaceOnUse" color-interpolation-filters="sRGB">
<feFlood flood-opacity="0" result="BackgroundImageFix"/>
<feBlend mode="normal" in="SourceGraphic" in2="BackgroundImageFix" result="shape"/>
<feColorMatrix in="SourceAlpha" type="matrix" values="0 0 0 0 0 0 0 0 0 0 0 0 0 0 0 0 0 0 127 0" result="hardAlpha"/>
<feOffset/>
<feGaussianBlur stdDeviation="1.16149"/>
<feComposite in2="hardAlpha" operator="arithmetic" k2="-1" k3="1"/>
<feColorMatrix type="matrix" values="0 0 0 0 1 0 0 0 0 1 0 0 0 0 1 0 0 0 1 0"/>
<feBlend mode="normal" in2="shape" result="effect1_innerShadow_2_210"/>
<feColorMatrix in="SourceAlpha" type="matrix" values="0 0 0 0 0 0 0 0 0 0 0 0 0 0 0 0 0 0 127 0" result="hardAlpha"/>
<feOffset dy="-0.387162"/>
<feGaussianBlur stdDeviation="0.387162"/>
<feComposite in2="hardAlpha" operator="arithmetic" k2="-1" k3="1"/>
<feColorMatrix type="matrix" values="0 0 0 0 1 0 0 0 0 0.713521 0 0 0 0 0.140562 0 0 0 0.8 0"/>
<feBlend mode="normal" in2="effect1_innerShadow_2_210" result="effect2_innerShadow_2_210"/>
</filter>
<filter id="filter4_ii_2_210" x="54.2695" y="70.5842" width="25.1406" height="26.9153" filterUnits="userSpaceOnUse" color-interpolation-filters="sRGB">
<feFlood flood-opacity="0" result="BackgroundImageFix"/>
<feBlend mode="normal" in="SourceGraphic" in2="BackgroundImageFix" result="shape"/>
<feColorMatrix in="SourceAlpha" type="matrix" values="0 0 0 0 0 0 0 0 0 0 0 0 0 0 0 0 0 0 127 0" result="hardAlpha"/>
<feOffset/>
<feGaussianBlur stdDeviation="1.16149"/>
<feComposite in2="hardAlpha" operator="arithmetic" k2="-1" k3="1"/>
<feColorMatrix type="matrix" values="0 0 0 0 1 0 0 0 0 1 0 0 0 0 1 0 0 0 1 0"/>
<feBlend mode="normal" in2="shape" result="effect1_innerShadow_2_210"/>
<feColorMatrix in="SourceAlpha" type="matrix" values="0 0 0 0 0 0 0 0 0 0 0 0 0 0 0 0 0 0 127 0" result="hardAlpha"/>
<feOffset dy="-0.387162"/>
<feGaussianBlur stdDeviation="0.387162"/>
<feComposite in2="hardAlpha" operator="arithmetic" k2="-1" k3="1"/>
<feColorMatrix type="matrix" values="0 0 0 0 1 0 0 0 0 0.713521 0 0 0 0 0.140562 0 0 0 0.8 0"/>
<feBlend mode="normal" in2="effect1_innerShadow_2_210" result="effect2_innerShadow_2_210"/>
</filter>
<filter id="filter5_ii_2_210" x="53.4617" y="23.233" width="38.9846" height="37.6474" filterUnits="userSpaceOnUse" color-interpolation-filters="sRGB">
<feFlood flood-opacity="0" result="BackgroundImageFix"/>
<feBlend mode="normal" in="SourceGraphic" in2="BackgroundImageFix" result="shape"/>
<feColorMatrix in="SourceAlpha" type="matrix" values="0 0 0 0 0 0 0 0 0 0 0 0 0 0 0 0 0 0 127 0" result="hardAlpha"/>
<feOffset/>
<feGaussianBlur stdDeviation="2.32297"/>
<feComposite in2="hardAlpha" operator="arithmetic" k2="-1" k3="1"/>
<feColorMatrix type="matrix" values="0 0 0 0 1 0 0 0 0 1 0 0 0 0 1 0 0 0 1 0"/>
<feBlend mode="normal" in2="shape" result="effect1_innerShadow_2_210"/>
<feColorMatrix in="SourceAlpha" type="matrix" values="0 0 0 0 0 0 0 0 0 0 0 0 0 0 0 0 0 0 127 0" result="hardAlpha"/>
<feOffset dy="-0.387162"/>
<feGaussianBlur stdDeviation="1.16149"/>
<feComposite in2="hardAlpha" operator="arithmetic" k2="-1" k3="1"/>
<feColorMatrix type="matrix" values="0 0 0 0 0.32549 0 0 0 0 0.160784 0 0 0 0 0.8 0 0 0 0.5 0"/>
<feBlend mode="normal" in2="effect1_innerShadow_2_210" result="effect2_innerShadow_2_210"/>
</filter>
<filter id="filter6_i_2_210" x="26.98" y="33.7026" width="59.9138" height="59.6544" filterUnits="userSpaceOnUse" color-interpolation-filters="sRGB">
<feFlood flood-opacity="0" result="BackgroundImageFix"/>
<feBlend mode="normal" in="SourceGraphic" in2="BackgroundImageFix" result="shape"/>
<feColorMatrix in="SourceAlpha" type="matrix" values="0 0 0 0 0 0 0 0 0 0 0 0 0 0 0 0 0 0 127 0" result="hardAlpha"/>
<feOffset/>
<feGaussianBlur stdDeviation="2.32297"/>
<feComposite in2="hardAlpha" operator="arithmetic" k2="-1" k3="1"/>
<feColorMatrix type="matrix" values="0 0 0 0 1 0 0 0 0 1 0 0 0 0 1 0 0 0 1 0"/>
<feBlend mode="normal" in2="shape" result="effect1_innerShadow_2_210"/>
</filter>
<filter id="filter7_f_2_210" x="68.1337" y="26.5783" width="7.46062" height="6.02092" filterUnits="userSpaceOnUse" color-interpolation-filters="sRGB">
<feFlood flood-opacity="0" result="BackgroundImageFix"/>
<feBlend mode="normal" in="SourceGraphic" in2="BackgroundImageFix" result="shape"/>
<feGaussianBlur stdDeviation="0.216595" result="effect1_foregroundBlur_2_210"/>
</filter>
<linearGradient id="paint0_linear_2_210" x1="30.5584" y1="85.4473" x2="42.9052" y2="95.552" gradientUnits="userSpaceOnUse">
<stop stop-color="#FFBB33"/>
<stop offset="0.310723" stop-color="#E97325"/>
<stop offset="0.574189" stop-color="#E04620"/>
<stop offset="0.814942" stop-color="#EA6E21"/>
<stop offset="1" stop-color="#F9B223"/>
</linearGradient>
<linearGradient id="paint1_linear_2_210" x1="26.3867" y1="72.333" x2="54.2507" y2="95.1371" gradientUnits="userSpaceOnUse">
<stop stop-color="#FFBA33"/>
<stop offset="0.350616" stop-color="#FFB11A"/>
<stop offset="0.523487" stop-color="#FF941A"/>
<stop offset="0.680657" stop-color="#E68517"/>
<stop offset="0.828125" stop-color="#FF941A"/>
<stop offset="1" stop-color="#FFBA33"/>
</linearGradient>
<linearGradient id="paint2_linear_2_210" x1="54.2507" y1="95.1371" x2="26.3867" y2="72.333" gradientUnits="userSpaceOnUse">
<stop stop-color="white" stop-opacity="0.01"/>
<stop offset="0.494792" stop-color="white" stop-opacity="0.7"/>
<stop offset="1" stop-color="white" stop-opacity="0.01"/>
</linearGradient>
<linearGradient id="paint3_linear_2_210" x1="27.7896" y1="68.4779" x2="57.4514" y2="92.7533" gradientUnits="userSpaceOnUse">
<stop stop-color="#E6A72E"/>
<stop offset="0.350616" stop-color="#E69F17"/>
<stop offset="0.523487" stop-color="#E68517"/>
<stop offset="0.680657" stop-color="#CC7614"/>
<stop offset="0.828125" stop-color="#E68517"/>
<stop offset="1" stop-color="#CC9529"/>
</linearGradient>
<linearGradient id="paint4_linear_2_210" x1="20.2045" y1="60.0196" x2="34.586" y2="71.7895" gradientUnits="userSpaceOnUse">
<stop stop-color="#FFBA33"/>
<stop offset="0.208333" stop-color="#FF941A"/>
<stop offset="0.380208" stop-color="#E68517"/>
<stop offset="0.557292" stop-color="#FF941A"/>
<stop offset="0.864583" stop-color="#FFB11A"/>
<stop offset="1" stop-color="#FFBA33"/>
</linearGradient>
<linearGradient id="paint5_linear_2_210" x1="53.1626" y1="86.9918" x2="67.544" y2="98.7617" gradientUnits="userSpaceOnUse">
<stop stop-color="#FFBA33"/>
<stop offset="0.208333" stop-color="#FF941A"/>
<stop offset="0.528861" stop-color="#E68517"/>
<stop offset="0.774274" stop-color="#FF941A"/>
<stop offset="0.885106" stop-color="#FFB11A"/>
<stop offset="1" stop-color="#FFBA33"/>
</linearGradient>
<linearGradient id="paint6_linear_2_210" x1="87.312" y1="61.1589" x2="53.1561" y2="33.2053" gradientUnits="userSpaceOnUse">
<stop stop-color="#A080FF"/>
<stop offset="0.130208" stop-color="#754FE2"/>
<stop offset="0.258611" stop-color="#5329CC"/>
<stop offset="0.411175" stop-color="#3B12B3"/>
<stop offset="0.5625" stop-color="#5329CC"/>
<stop offset="1" stop-color="#A080FF"/>
</linearGradient>
<linearGradient id="paint7_linear_2_210" x1="75.4867" y1="79.2748" x2="37.7354" y2="48.3788" gradientUnits="userSpaceOnUse">
<stop stop-color="#C4CCF5"/>
<stop offset="0.146533" stop-color="#9898FF"/>
<stop offset="0.365826" stop-color="#7373FF"/>
<stop offset="0.625845" stop-color="#A6A6FF"/>
<stop offset="0.769951" stop-color="#B3B3FF"/>
<stop offset="1" stop-color="#E6F7FF"/>
</linearGradient>
</defs>
</svg>
