<svg width="44" height="41" viewBox="0 0 44 41" fill="none" xmlns="http://www.w3.org/2000/svg">
<g filter="url(#filter0_ii_5_1853)">
<path fill-rule="evenodd" clip-rule="evenodd" d="M25.5835 40.6493C35.0097 40.6493 42.7942 33.5691 43.9825 24.3999C44.1563 23.0587 43.0432 21.9565 41.6908 21.9565H7.02909C7.02816 21.9565 7.02741 21.9573 7.02741 21.9582V21.9582C7.02741 21.9591 7.02668 21.9599 7.02577 21.9599C3.12832 22.0613 0 25.2525 0 29.1744C0 33.1198 3.4319 36.3258 7.36738 36.3904C7.3693 36.3904 7.37085 36.3919 7.37085 36.3939V36.3939C7.37085 36.3958 7.37242 36.3974 7.37436 36.3974H13.6256C13.7384 36.3974 13.8475 36.4369 13.9349 36.5081C17.1195 39.0983 21.1717 40.6493 25.5835 40.6493ZM7.21845 26.1081V26.1081C7.38004 26.1081 7.51314 26.227 7.55102 26.3841C7.98887 28.2001 8.69001 29.9123 9.61142 31.4775C9.80655 31.809 9.57325 32.2379 9.18861 32.2379H7.13327C7.13278 32.2379 7.13238 32.2375 7.13238 32.237V32.237C7.13238 32.2365 7.132 32.2361 7.13152 32.2361C5.47918 32.1901 4.15385 30.8362 4.15385 29.1727C4.15385 27.4802 5.52592 26.1081 7.21845 26.1081Z" fill="url(#paint0_radial_5_1853)"/>
</g>
<g filter="url(#filter1_ii_5_1853)">
<path fill-rule="evenodd" clip-rule="evenodd" d="M41.5252 18.6927C40.3443 18.6927 39.4012 17.7344 39.2243 16.5668C38.1682 9.59619 32.2442 4.25886 25.0945 4.25886C17.9369 4.25886 12.0078 9.60796 10.9612 16.5899C10.7881 17.7449 9.85517 18.6927 8.68723 18.6927V18.6927C7.51344 18.6927 6.5493 17.7373 6.68013 16.5708C7.726 7.24621 15.582 -7.62939e-06 25.118 -7.62939e-06C34.646 -7.62939e-06 42.4968 7.23406 43.5532 16.5474C43.687 17.7266 42.712 18.6927 41.5252 18.6927V18.6927Z" fill="url(#paint1_linear_5_1853)"/>
</g>
<g filter="url(#filter2_ii_5_1853)">
<path fill-rule="evenodd" clip-rule="evenodd" d="M25.1065 11.9623C27.9263 11.9623 30.2627 14.0638 30.6633 16.8017C30.8052 17.7712 31.6113 18.6928 32.7702 18.6928C33.8705 18.6928 34.9151 17.7651 34.7857 16.4834C34.2855 11.5299 30.1482 7.66589 25.1168 7.66589C20.0812 7.66589 15.9414 11.5361 15.4466 16.4953C15.3195 17.7698 16.3578 18.6928 17.453 18.6928C18.6059 18.6928 19.4086 17.7759 19.5485 16.81C19.9456 14.0681 22.2838 11.9623 25.1065 11.9623ZM30.9838 16.7537C30.56 13.8575 28.0892 11.6348 25.1065 11.6348C24.6994 11.6348 24.3018 11.6762 23.9177 11.755C24.303 11.6756 24.7019 11.6339 25.1104 11.6339C28.0946 11.6339 30.5666 13.8601 30.9906 16.7609C31.0407 17.1034 31.1858 17.4353 31.4062 17.7081C31.182 17.4341 31.0344 17.0993 30.9838 16.7537Z" fill="url(#paint2_linear_5_1853)"/>
</g>
<defs>
<filter id="filter0_ii_5_1853" x="-0.36286" y="21.4727" width="44.6053" height="19.6604" filterUnits="userSpaceOnUse" color-interpolation-filters="sRGB">
<feFlood flood-opacity="0" result="BackgroundImageFix"/>
<feBlend mode="normal" in="SourceGraphic" in2="BackgroundImageFix" result="shape"/>
<feColorMatrix in="SourceAlpha" type="matrix" values="0 0 0 0 0 0 0 0 0 0 0 0 0 0 0 0 0 0 127 0" result="hardAlpha"/>
<feOffset dx="-0.36286" dy="-0.483813"/>
<feGaussianBlur stdDeviation="0.665242"/>
<feComposite in2="hardAlpha" operator="arithmetic" k2="-1" k3="1"/>
<feColorMatrix type="matrix" values="0 0 0 0 0.868125 0 0 0 0 0.031875 0 0 0 0 0.834675 0 0 0 1 0"/>
<feBlend mode="normal" in2="shape" result="effect1_innerShadow_5_1853"/>
<feColorMatrix in="SourceAlpha" type="matrix" values="0 0 0 0 0 0 0 0 0 0 0 0 0 0 0 0 0 0 127 0" result="hardAlpha"/>
<feOffset dx="0.241906" dy="0.725719"/>
<feGaussianBlur stdDeviation="0.241906"/>
<feComposite in2="hardAlpha" operator="arithmetic" k2="-1" k3="1"/>
<feColorMatrix type="matrix" values="0 0 0 0 1 0 0 0 0 1 0 0 0 0 1 0 0 0 0.25 0"/>
<feBlend mode="normal" in2="effect1_innerShadow_5_1853" result="effect2_innerShadow_5_1853"/>
</filter>
<filter id="filter1_ii_5_1853" x="6.30535" y="-0.483813" width="37.502" height="19.6604" filterUnits="userSpaceOnUse" color-interpolation-filters="sRGB">
<feFlood flood-opacity="0" result="BackgroundImageFix"/>
<feBlend mode="normal" in="SourceGraphic" in2="BackgroundImageFix" result="shape"/>
<feColorMatrix in="SourceAlpha" type="matrix" values="0 0 0 0 0 0 0 0 0 0 0 0 0 0 0 0 0 0 127 0" result="hardAlpha"/>
<feOffset dx="-0.36286" dy="-0.483813"/>
<feGaussianBlur stdDeviation="0.665242"/>
<feComposite in2="hardAlpha" operator="arithmetic" k2="-1" k3="1"/>
<feColorMatrix type="matrix" values="0 0 0 0 0.868125 0 0 0 0 0.031875 0 0 0 0 0.834675 0 0 0 1 0"/>
<feBlend mode="normal" in2="shape" result="effect1_innerShadow_5_1853"/>
<feColorMatrix in="SourceAlpha" type="matrix" values="0 0 0 0 0 0 0 0 0 0 0 0 0 0 0 0 0 0 127 0" result="hardAlpha"/>
<feOffset dx="0.241906" dy="0.725719"/>
<feGaussianBlur stdDeviation="0.241906"/>
<feComposite in2="hardAlpha" operator="arithmetic" k2="-1" k3="1"/>
<feColorMatrix type="matrix" values="0 0 0 0 1 0 0 0 0 1 0 0 0 0 1 0 0 0 0.25 0"/>
<feBlend mode="normal" in2="effect1_innerShadow_5_1853" result="effect2_innerShadow_5_1853"/>
</filter>
<filter id="filter2_ii_5_1853" x="15.0732" y="7.18208" width="19.9654" height="11.9945" filterUnits="userSpaceOnUse" color-interpolation-filters="sRGB">
<feFlood flood-opacity="0" result="BackgroundImageFix"/>
<feBlend mode="normal" in="SourceGraphic" in2="BackgroundImageFix" result="shape"/>
<feColorMatrix in="SourceAlpha" type="matrix" values="0 0 0 0 0 0 0 0 0 0 0 0 0 0 0 0 0 0 127 0" result="hardAlpha"/>
<feOffset dx="-0.36286" dy="-0.483813"/>
<feGaussianBlur stdDeviation="0.665242"/>
<feComposite in2="hardAlpha" operator="arithmetic" k2="-1" k3="1"/>
<feColorMatrix type="matrix" values="0 0 0 0 0.868125 0 0 0 0 0.031875 0 0 0 0 0.834675 0 0 0 1 0"/>
<feBlend mode="normal" in2="shape" result="effect1_innerShadow_5_1853"/>
<feColorMatrix in="SourceAlpha" type="matrix" values="0 0 0 0 0 0 0 0 0 0 0 0 0 0 0 0 0 0 127 0" result="hardAlpha"/>
<feOffset dx="0.241906" dy="0.725719"/>
<feGaussianBlur stdDeviation="0.241906"/>
<feComposite in2="hardAlpha" operator="arithmetic" k2="-1" k3="1"/>
<feColorMatrix type="matrix" values="0 0 0 0 1 0 0 0 0 1 0 0 0 0 1 0 0 0 0.25 0"/>
<feBlend mode="normal" in2="effect1_innerShadow_5_1853" result="effect2_innerShadow_5_1853"/>
</filter>
<radialGradient id="paint0_radial_5_1853" cx="0" cy="0" r="1" gradientUnits="userSpaceOnUse" gradientTransform="translate(24.4568 21.9559) rotate(90.3938) scale(20.2189 47.5928)">
<stop stop-color="#E1B2FD"/>
<stop offset="1" stop-color="#BD00C1"/>
</radialGradient>
<linearGradient id="paint1_linear_5_1853" x1="25.1497" y1="31.1961" x2="30.0627" y2="0.793961" gradientUnits="userSpaceOnUse">
<stop stop-color="#BD00C1"/>
<stop offset="1" stop-color="#E1B2FD"/>
</linearGradient>
<linearGradient id="paint2_linear_5_1853" x1="25.1514" y1="24.596" x2="20.8639" y2="8.80743" gradientUnits="userSpaceOnUse">
<stop stop-color="#BD00C1"/>
<stop offset="1" stop-color="#E1B2FD"/>
</linearGradient>
</defs>
</svg>
